<svg width="15" height="25" viewBox="0 0 15 25" fill="none" xmlns="http://www.w3.org/2000/svg">
<path d="M9.18787 25.0001H5.17651C4.50648 25.0001 3.96144 24.4551 3.96144 23.785V14.7372H1.62113C0.951107 14.7372 0.406067 14.192 0.406067 13.5221V9.64513C0.406067 8.97511 0.951107 8.43007 1.62113 8.43007H3.96144V6.4886C3.96144 4.56357 4.56592 2.92577 5.70932 1.75256C6.85788 0.573993 8.46299 -0.0488281 10.3511 -0.0488281L13.4104 -0.0438593C14.0793 -0.0427127 14.6234 0.502328 14.6234 1.17121V4.77092C14.6234 5.44094 14.0785 5.98598 13.4087 5.98598L11.3489 5.98675C10.7207 5.98675 10.5608 6.11269 10.5266 6.15129C10.4702 6.21531 10.4031 6.39629 10.4031 6.89604V8.42987H13.2539C13.4685 8.42987 13.6764 8.48281 13.8551 8.58257C14.2406 8.79795 14.4802 9.2052 14.4802 9.64532L14.4787 13.5223C14.4787 14.192 13.9337 14.737 13.2636 14.737H10.4031V23.785C10.4031 24.4551 9.85789 25.0001 9.18787 25.0001ZM5.42992 23.5316H8.93446V14.0798C8.93446 13.6324 9.29852 13.2685 9.74571 13.2685H13.0102L13.0116 9.89854H9.74552C9.29833 9.89854 8.93446 9.53467 8.93446 9.08729V6.89604C8.93446 6.32233 8.99275 5.66989 9.4258 5.17951C9.94905 4.58669 10.7737 4.51827 11.3485 4.51827L13.1549 4.51751V1.42423L10.35 1.41965C7.31558 1.41965 5.42992 3.36207 5.42992 6.4886V9.08729C5.42992 9.53448 5.06605 9.89854 4.61885 9.89854H1.87454V13.2685H4.61885C5.06605 13.2685 5.42992 13.6324 5.42992 14.0798V23.5316ZM13.4075 1.42462H13.4077H13.4075Z" fill="white"/>
</svg>
