<svg width="20" height="20" viewBox="0 0 20 20" fill="none" xmlns="http://www.w3.org/2000/svg">
<g clip-path="url(#clip0)">
<path d="M19.5833 3.75H0.41668C0.18668 3.75 0 3.93668 0 4.16668C0 4.39668 0.18668 4.58336 0.41668 4.58336H19.5834C19.8134 4.58336 20 4.39668 20 4.16668C20 3.93668 19.8133 3.75 19.5833 3.75Z" fill="white"/>
<path d="M19.5833 9.58325H0.41668C0.18668 9.58325 0 9.76993 0 9.99994C0 10.2299 0.18668 10.4166 0.41668 10.4166H19.5834C19.8134 10.4166 20 10.2299 20 9.99994C20 9.76993 19.8133 9.58325 19.5833 9.58325Z" fill="white"/>
<path d="M19.5833 15.4167H0.41668C0.18668 15.4167 0 15.6034 0 15.8334C0 16.0634 0.18668 16.2501 0.41668 16.2501H19.5834C19.8134 16.2501 20 16.0634 20 15.8334C20 15.6034 19.8133 15.4167 19.5833 15.4167Z" fill="white"/>
</g>
<defs>
<clipPath id="clip0">
<rect width="20" height="20" fill="white"/>
</clipPath>
</defs>
</svg>
