<svg width="25" height="23" viewBox="0 0 25 23" fill="none" xmlns="http://www.w3.org/2000/svg">
<path d="M17.7615 12.4731H14.3645C13.4348 12.4731 12.6788 13.2292 12.6788 14.1589V16.7641C12.6788 17.6938 13.4348 18.4499 14.3645 18.4499H17.7615C18.6912 18.4499 19.4473 17.6938 19.4473 16.7641V14.1589C19.4473 13.2292 18.6912 12.4731 17.7615 12.4731ZM18.2213 16.7641C18.2213 17.0195 18.0118 17.2239 17.7615 17.2239H14.3645C14.1091 17.2239 13.9048 17.0144 13.9048 16.7641V14.1589C13.9048 13.9035 14.1142 13.6991 14.3645 13.6991H17.7615C18.0169 13.6991 18.2213 13.9086 18.2213 14.1589V16.7641Z" fill="white"/>
<path d="M25 7.73767C25 7.6304 24.9745 7.52823 24.9183 7.43628L21.1994 0.897666C21.0922 0.708659 20.8878 0.58606 20.6682 0.58606H4.32673C4.10707 0.58606 3.90274 0.70355 3.79546 0.897666L0.0817327 7.43628C0.0306498 7.52823 0 7.6304 0 7.73767C0 9.20375 0.883735 10.4604 2.14548 11.0172V21.8008C2.14548 22.138 2.42133 22.4138 2.75848 22.4138H6.14528C6.15039 22.4138 6.1555 22.4138 6.1606 22.4138H10.9113C10.9164 22.4138 10.9215 22.4138 10.9266 22.4138H22.2364C22.5736 22.4138 22.8494 22.138 22.8494 21.8008V11.0938C22.8494 11.0683 22.8494 11.0478 22.8443 11.0274C24.1112 10.4706 25 9.20886 25 7.73767ZM4.68431 1.81716H20.3106L23.2172 6.93056H1.7828L4.68431 1.81716ZM17.7922 8.15144C17.5981 9.25484 16.6326 10.0926 15.473 10.0926C14.3134 10.0926 13.348 9.25484 13.1539 8.15144H17.7922ZM11.8512 8.15144C11.6571 9.25484 10.6917 10.0926 9.53208 10.0926C8.3725 10.0926 7.40703 9.25484 7.20781 8.15144H11.8512ZM1.26686 8.15144H5.9103C5.71618 9.25484 4.74561 10.0926 3.58602 10.0926C2.42644 10.0977 1.46097 9.25484 1.26686 8.15144ZM10.2983 21.1878H6.7736V14.5726C6.7736 14.0924 7.16183 13.6991 7.64712 13.6991H9.42991C9.91009 13.6991 10.3034 14.0873 10.3034 14.5726V21.1878H10.2983ZM21.6234 21.1878H11.5243V14.5726C11.5243 13.4181 10.5844 12.4731 9.42481 12.4731H7.64201C6.48754 12.4731 5.5425 13.413 5.5425 14.5726V21.1929H3.37148V11.3186C3.44299 11.3237 3.51451 11.3237 3.58602 11.3237C4.82223 11.3237 5.91541 10.6954 6.55905 9.74013C7.2027 10.6954 8.29587 11.3237 9.53208 11.3237C10.7683 11.3237 11.8564 10.6954 12.5051 9.74013C13.1488 10.6954 14.2419 11.3237 15.473 11.3237C16.7092 11.3237 17.7973 10.6954 18.4409 9.74013C19.0846 10.6954 20.1778 11.3237 21.414 11.3237C21.4855 11.3237 21.5519 11.3186 21.6234 11.3186V21.1878ZM21.414 10.0977C20.2544 10.0977 19.2889 9.25995 19.0948 8.15655H23.7383C23.539 9.25484 22.5736 10.0977 21.414 10.0977Z" fill="white"/>
</svg>
