<svg width="40" height="40" viewBox="0 0 40 40" fill="none" xmlns="http://www.w3.org/2000/svg">
<path d="M39.5113 37.1548L28.1364 25.7799C30.3397 23.0583 31.6663 19.5999 31.6663 15.8333C31.6663 7.10341 24.563 0.000125885 15.8331 0.000125885C7.10321 0.000125885 0 7.10334 0 15.8333C0 24.5632 7.10329 31.6665 15.8332 31.6665C19.5998 31.6665 23.0581 30.3398 25.7797 28.1365L37.1546 39.5114C37.4796 39.8364 37.9063 39.9997 38.333 39.9997C38.7597 39.9997 39.1863 39.8364 39.5113 39.5114C40.163 38.8597 40.163 37.8064 39.5113 37.1548ZM15.8332 28.3331C8.93991 28.3331 3.33333 22.7265 3.33333 15.8333C3.33333 8.93996 8.93991 3.33337 15.8332 3.33337C22.7265 3.33337 28.3331 8.93996 28.3331 15.8333C28.3331 22.7265 22.7264 28.3331 15.8332 28.3331Z" fill="white"/>
</svg>
