<svg width="27" height="15" viewBox="0 0 27 15" fill="none" xmlns="http://www.w3.org/2000/svg">
<path fill-rule="evenodd" clip-rule="evenodd" d="M0.394765 0.582387C0.49056 0.48635 0.604359 0.410155 0.729646 0.358167C0.854933 0.306179 0.989245 0.279419 1.12489 0.279419C1.26054 0.279419 1.39485 0.306179 1.52013 0.358167C1.64542 0.410155 1.75922 0.48635 1.85502 0.582387L13.4999 12.2293L25.1448 0.582387C25.2406 0.486505 25.3545 0.410448 25.4797 0.358557C25.605 0.306667 25.7393 0.279959 25.8749 0.279959C26.0105 0.279959 26.1448 0.306667 26.27 0.358557C26.3953 0.410448 26.5091 0.486505 26.605 0.582387C26.7009 0.678268 26.777 0.792096 26.8288 0.917371C26.8807 1.04265 26.9074 1.17692 26.9074 1.31251C26.9074 1.44811 26.8807 1.58238 26.8288 1.70765C26.777 1.83293 26.7009 1.94676 26.605 2.04264L14.23 14.4176C14.1342 14.5137 14.0204 14.5899 13.8951 14.6419C13.7698 14.6938 13.6355 14.7206 13.4999 14.7206C13.3642 14.7206 13.2299 14.6938 13.1046 14.6419C12.9794 14.5899 12.8656 14.5137 12.7698 14.4176L0.394765 2.04264C0.298729 1.94684 0.222534 1.83304 0.170546 1.70776C0.118558 1.58247 0.0917969 1.44816 0.0917969 1.31251C0.0917969 1.17687 0.118558 1.04255 0.170546 0.917267C0.222534 0.791981 0.298729 0.678181 0.394765 0.582387Z" fill="white"/>
</svg>
